<?xml version="1.0" standalone="no"?><svg xmlns="http://www.w3.org/2000/svg" viewBox="0 0 1440 320"><path fill="#94D8D4" fill-opacity="1" d="M0,192L34.3,181.3C68.6,171,137,149,206,133.3C274.3,117,343,107,411,128C480,149,549,203,617,202.7C685.7,203,754,149,823,160C891.4,171,960,245,1029,277.3C1097.1,309,1166,299,1234,288C1302.9,277,1371,267,1406,261.3L1440,256L1440,0L1405.7,0C1371.4,0,1303,0,1234,0C1165.7,0,1097,0,1029,0C960,0,891,0,823,0C754.3,0,686,0,617,0C548.6,0,480,0,411,0C342.9,0,274,0,206,0C137.1,0,69,0,34,0L0,0Z"></path></svg>